<svg width="24" height="24" viewBox="0 0 24 24" fill="none" xmlns="http://www.w3.org/2000/svg">
<path d="M20.1283 0.845713H10.7763L10.7487 0.773575C10.5691 0.307741 10.1209 0 9.62133 0H4.08582C3.03674 0 2.15495 0.832667 2.15495 1.88175V22.1175C2.15495 23.165 3.03597 24 4.08582 24H18.4837C18.7101 24 18.9211 23.888 19.0485 23.703C19.1759 23.5173 19.2043 23.2801 19.1252 23.0706H20.1291C21.0999 23.0706 21.845 22.2871 21.845 21.317V2.60544C21.8443 1.6354 21.0983 0.845713 20.1283 0.845713ZM19.9019 21.0431H18.3747L17.519 18.7814C17.9864 18.6963 18.3386 18.2987 18.3386 17.8068C18.3386 17.2519 17.8904 16.8176 17.3341 16.8176H16.7746L16.0747 14.9588H17.5044C18.0593 14.9588 18.5075 14.4984 18.5075 13.9443C18.5075 13.3902 18.0593 12.9313 17.5044 12.9313H15.3249L14.625 11.0718H17.5044C18.0593 11.0718 18.5075 10.6535 18.5075 10.1002C18.5075 9.54536 18.0593 9.12711 17.5044 9.12711H13.8752L13.1753 7.26915H17.5044C18.0593 7.26915 18.5075 6.80868 18.5075 6.2546C18.5075 5.70128 18.0593 5.24158 17.5044 5.24158H12.4263L11.5253 2.87481H19.9011V21.0431H19.9019Z" fill="white"/>
</svg>
