<svg width="22" height="22" viewBox="0 0 22 22" fill="none" xmlns="http://www.w3.org/2000/svg">
<g opacity="0.4" clip-path="url(#clip0)">
<path d="M18.0712 11.0007C17.6372 11.0007 17.2855 11.3525 17.2855 11.7864V19.6434C17.2855 20.0774 16.9337 20.4292 16.4997 20.4292H2.35711C1.92316 20.4292 1.57139 20.0774 1.57139 19.6434V3.92938C1.57139 3.49543 1.92316 3.14366 2.35711 3.14366H11.7856C12.2195 3.14366 12.5713 2.79189 12.5713 2.35794C12.5713 1.92399 12.2195 1.57227 11.7856 1.57227H2.35711C1.05531 1.57227 0 2.62758 0 3.92938V19.6434C0 20.9452 1.05531 22.0006 2.35711 22.0006H16.4998C17.8016 22.0006 18.8569 20.9452 18.8569 19.6434V11.7864C18.8569 11.3525 18.5051 11.0007 18.0712 11.0007Z" fill="#13B4CA"/>
<path d="M21.1193 0.881075C20.5551 0.316841 19.7899 -7.96441e-05 18.9921 1.24306e-05C18.1937 -0.00228944 17.4278 0.315184 16.8652 0.881581L6.51583 11.23C6.42997 11.3165 6.3652 11.4217 6.32648 11.5372L4.75508 16.2515C4.61794 16.6632 4.84053 17.1081 5.25224 17.2452C5.33212 17.2718 5.41577 17.2854 5.49992 17.2855C5.58426 17.2853 5.6681 17.2718 5.7482 17.2454L10.4624 15.674C10.5782 15.6354 10.6834 15.5703 10.7696 15.4839L21.1189 5.1346C22.2936 3.9601 22.2937 2.05572 21.1193 0.881075Z" fill="#13B4CA"/>
</g>
<defs>
<clipPath id="clip0">
<rect width="22" height="22" fill="white"/>
</clipPath>
</defs>
</svg>
