<svg width="20" height="20" viewBox="0 0 20 20" fill="none" xmlns="http://www.w3.org/2000/svg">
<g clip-path="url(#clip0)">
<path d="M19.4105 17.3864H19.1383V15.7248C19.1383 15.3471 18.7851 15.064 18.4121 15.1518C17.4699 15.3754 16.843 15.4867 16.0402 15.4761C14.6646 15.4582 14.0843 15.1847 12.4438 15.0577C11.3953 14.9765 10.5426 15.4613 10 16.1499C9.45742 15.4613 8.60469 14.9765 7.55625 15.0577C5.91754 15.1845 5.33418 15.4582 3.95977 15.4761C3.15703 15.4867 2.53008 15.3754 1.58789 15.1518C1.21535 15.0641 0.861719 15.3465 0.861719 15.7248V17.3864H0.589453C0.264063 17.3864 0 17.6503 0 17.9754C0 18.301 0.264063 18.5645 0.589453 18.5645H6.84453C7.09766 19.3951 7.87148 20.0009 8.78398 20.0009H11.216C12.1285 20.0009 12.9023 19.3951 13.1555 18.5645H19.4105C19.7359 18.5645 20 18.301 20 17.9754C20 17.6503 19.7359 17.3864 19.4105 17.3864Z" fill="#848484"/>
<path d="M6.91441 1.93532C5.31597 3.53106 5.17738 6.0175 6.50894 7.77161C7.04527 8.4777 7.42222 9.25606 7.63394 10.0929H9.47457V6.62403C9.47457 6.30032 9.73777 6.03852 10.0605 6.03852C10.3839 6.03852 10.6464 6.30082 10.6464 6.62403V10.0929H12.4894C12.7023 9.25762 13.0816 8.47461 13.6214 7.75875C14.9289 6.0261 14.8213 3.52028 13.189 1.91157C11.4519 0.199926 8.65695 0.194887 6.91441 1.93532Z" fill="#848484"/>
<path d="M3.88467 5.08898C4.20826 5.08898 4.47061 4.82684 4.47061 4.50348C4.47061 4.18012 4.20826 3.91797 3.88467 3.91797H1.93115C1.60756 3.91797 1.34521 4.18012 1.34521 4.50348C1.34521 4.82684 1.60756 5.08898 1.93115 5.08898H3.88467Z" fill="#848484"/>
<path d="M17.9616 7.91573L16.2784 6.92487C15.9996 6.76077 15.6404 6.8535 15.4761 7.13214C15.3119 7.41073 15.4047 7.76964 15.6836 7.93378L17.3667 8.92464C17.6458 9.08886 18.0049 8.99581 18.169 8.71738C18.3332 8.43878 18.2404 8.07987 17.9616 7.91573Z" fill="#848484"/>
<path d="M3.84269 6.92487L2.15952 7.91573C1.8807 8.07987 1.78784 8.43877 1.9521 8.71737C2.1164 8.99604 2.47558 9.08874 2.75437 8.92463L4.43753 7.93378C4.71636 7.76963 4.80921 7.41073 4.64495 7.13213C4.48066 6.8535 4.12148 6.76077 3.84269 6.92487Z" fill="#848484"/>
<path d="M16.2784 2.08088L17.9616 1.09002C18.2404 0.925884 18.3333 0.566978 18.169 0.288384C18.0047 0.00975158 17.6455 -0.0829828 17.3667 0.0811188L15.6836 1.07198C15.4047 1.23612 15.3119 1.59503 15.4761 1.87362C15.6404 2.15233 15.9996 2.24503 16.2784 2.08088Z" fill="#848484"/>
<path d="M4.43759 1.07198L2.75443 0.0811188C2.4756 -0.0829828 2.1165 0.00975158 1.95216 0.288384C1.7879 0.566978 1.88076 0.925884 2.15958 1.09002L3.84275 2.08088C4.12173 2.2451 4.4808 2.1521 4.64501 1.87362C4.80923 1.59503 4.71642 1.23612 4.43759 1.07198Z" fill="#848484"/>
<path d="M18.1899 3.91797H16.2364C15.9128 3.91797 15.6505 4.18012 15.6505 4.50348C15.6505 4.82684 15.9128 5.08899 16.2364 5.08899H18.1899C18.5135 5.08899 18.7758 4.82684 18.7758 4.50348C18.7758 4.18012 18.5135 3.91797 18.1899 3.91797Z" fill="#848484"/>
<path d="M7.75153 11.2637V11.8875C7.75153 12.7942 8.51403 13.5315 9.45231 13.5315H10.6593C11.5906 13.5315 12.3539 12.7993 12.3609 11.8991L12.3652 11.2637H7.75153V11.2637Z" fill="#848484"/>
</g>
<defs>
<clipPath id="clip0">
<rect width="20" height="20" fill="white"/>
</clipPath>
</defs>
</svg>
