<svg width="24" height="24" viewBox="0 0 24 24" fill="none" xmlns="http://www.w3.org/2000/svg">
<g clip-path="url(#clip0)">
<path d="M23.2927 20.8627H22.9659V18.8688C22.9659 18.4155 22.5421 18.0758 22.0945 18.1811C20.9639 18.4496 20.2116 18.5831 19.2483 18.5704C17.5975 18.5488 16.9011 18.2206 14.9325 18.0683C13.6744 17.9708 12.6511 18.5526 12 19.3788C11.3489 18.5526 10.3256 17.9708 9.0675 18.0683C7.10105 18.2205 6.40102 18.5489 4.75172 18.5704C3.78844 18.5831 3.03609 18.4496 1.90547 18.1811C1.45842 18.076 1.03406 18.4149 1.03406 18.8688V20.8627H0.707344C0.316875 20.8627 0 21.1794 0 21.5696C0 21.9602 0.316875 22.2764 0.707344 22.2764H8.21344C8.51719 23.2731 9.44578 24.0001 10.5408 24.0001H13.4592C14.5542 24.0001 15.4828 23.2731 15.7866 22.2764H23.2927C23.6831 22.2764 24 21.9602 24 21.5696C24 21.1794 23.6831 20.8627 23.2927 20.8627V20.8627Z" fill="white"/>
<path d="M8.29733 2.32209C6.3792 4.23698 6.21289 7.22071 7.81077 9.32564C8.45436 10.1729 8.9067 11.107 9.16077 12.1112H11.3695V7.94854C11.3695 7.56009 11.6854 7.24593 12.0726 7.24593C12.4608 7.24593 12.7758 7.5607 12.7758 7.94854V12.1112H14.9873C15.2428 11.1089 15.698 10.1692 16.3458 9.31021C17.9147 7.23103 17.7856 4.22404 15.8269 2.29359C13.7424 0.239619 10.3884 0.233572 8.29733 2.32209V2.32209Z" fill="white"/>
<path d="M4.6616 6.10688C5.04991 6.10688 5.36473 5.7923 5.36473 5.40427C5.36473 5.01624 5.04991 4.70166 4.6616 4.70166H2.31738C1.92907 4.70166 1.61426 5.01624 1.61426 5.40427C1.61426 5.7923 1.92907 6.10688 2.31738 6.10688H4.6616Z" fill="white"/>
<path d="M21.5539 9.50024L19.5341 8.31121C19.1995 8.11429 18.7685 8.22557 18.5714 8.55993C18.3743 8.89424 18.4857 9.32493 18.8203 9.5219L20.8401 10.7109C21.1749 10.908 21.6059 10.7963 21.8028 10.4622C21.9999 10.1279 21.8884 9.69721 21.5539 9.50024V9.50024Z" fill="white"/>
<path d="M4.61119 8.31121L2.59139 9.50024C2.2568 9.69721 2.14538 10.1279 2.34249 10.4622C2.53964 10.7966 2.97066 10.9078 3.3052 10.7109L5.325 9.5219C5.65959 9.32493 5.77102 8.89424 5.57391 8.55993C5.37675 8.22557 4.94574 8.11429 4.61119 8.31121Z" fill="white"/>
<path d="M19.5341 2.49706L21.5539 1.30803C21.8885 1.11106 21.9999 0.680374 21.8028 0.346061C21.6057 0.0117019 21.1746 -0.0995794 20.8401 0.0973425L18.8203 1.28637C18.4857 1.48334 18.3743 1.91403 18.5714 2.24834C18.7685 2.5828 19.1995 2.69403 19.5341 2.49706Z" fill="white"/>
<path d="M5.32506 1.28637L3.30527 0.0973425C2.97067 -0.0995794 2.53975 0.0117019 2.34255 0.346061C2.14544 0.680374 2.25686 1.11106 2.59145 1.30803L4.61125 2.49706C4.94603 2.69412 5.37691 2.58251 5.57397 2.24834C5.77103 1.91403 5.65966 1.48334 5.32506 1.28637V1.28637Z" fill="white"/>
<path d="M21.8279 4.70166H19.4836C19.0953 4.70166 18.7805 5.01624 18.7805 5.40427C18.7805 5.79231 19.0953 6.10689 19.4836 6.10689H21.8279C22.2162 6.10689 22.531 5.79231 22.531 5.40427C22.531 5.01624 22.2162 4.70166 21.8279 4.70166Z" fill="white"/>
<path d="M9.30182 13.5162V14.2647C9.30182 15.3528 10.2168 16.2375 11.3428 16.2375H12.7912C13.9087 16.2375 14.8246 15.3588 14.8331 14.2787L14.8382 13.5161H9.30182V13.5162Z" fill="white"/>
</g>
<defs>
<clipPath id="clip0">
<rect width="24" height="24" fill="white"/>
</clipPath>
</defs>
</svg>
