<svg width="60" height="60" viewBox="0 0 60 60" fill="none" xmlns="http://www.w3.org/2000/svg">
<rect width="60" height="60" rx="15" fill="white"/>
<path d="M38.965 31.1815H25.2729C24.6202 31.1815 24.0911 30.6524 24.0911 29.9997C24.0911 29.347 24.6202 28.8179 25.2729 28.8179H38.965L37.437 27.2899C36.9755 26.8285 36.9755 26.0802 37.437 25.6186C37.8984 25.1571 38.6467 25.1571 39.1084 25.6186L42.6536 29.1638C42.681 29.1912 42.7068 29.2198 42.7314 29.2497C42.7374 29.257 42.7425 29.2649 42.7484 29.2724C42.7664 29.2953 42.7841 29.3183 42.8004 29.3426C42.8051 29.3497 42.8089 29.3572 42.8136 29.3644C42.8298 29.3897 42.8457 29.4153 42.8601 29.442C42.8628 29.4473 42.8651 29.4529 42.8679 29.4582C42.8828 29.4871 42.8971 29.5164 42.9096 29.5467C42.9112 29.5504 42.9123 29.5543 42.9138 29.5581C42.9266 29.5899 42.9385 29.6221 42.9486 29.6553C42.95 29.6595 42.9507 29.6638 42.9519 29.6681C42.9614 29.7006 42.9701 29.7335 42.9768 29.7671C42.9788 29.7771 42.9797 29.7874 42.9815 29.7975C42.9864 29.8254 42.9913 29.8533 42.994 29.8818C42.998 29.9208 43 29.9601 43 29.9997C43 30.0393 42.998 30.0786 42.994 30.1177C42.9913 30.1466 42.9862 30.1747 42.9814 30.2028C42.9797 30.2126 42.9788 30.2226 42.9768 30.2323C42.9701 30.2662 42.9614 30.2994 42.9518 30.3323C42.9506 30.3361 42.9499 30.3402 42.9487 30.3441C42.9385 30.3774 42.9266 30.4099 42.9136 30.4421C42.9122 30.4456 42.9112 30.4493 42.9097 30.4527C42.8971 30.4832 42.8827 30.5127 42.8676 30.5418C42.865 30.5469 42.8628 30.5522 42.8602 30.5574C42.8457 30.5842 42.8297 30.6101 42.8132 30.6357C42.8088 30.6426 42.805 30.6499 42.8004 30.6567C42.7841 30.6811 42.7662 30.7042 42.7483 30.7272C42.7425 30.7346 42.7374 30.7424 42.7315 30.7497C42.7068 30.7795 42.681 30.8082 42.6536 30.8356L39.1084 34.3808C38.8777 34.6116 38.5752 34.727 38.2727 34.727C37.9703 34.727 37.6678 34.6116 37.4371 34.3808C36.9756 33.9192 36.9756 33.171 37.4371 32.7095L38.965 31.1815Z" fill="#13B4CA"/>
<path d="M26.6674 20.3325C29.8933 20.3325 32.8946 21.9329 34.6961 24.6133C35.0601 25.155 34.9161 25.8893 34.3744 26.2533C33.8327 26.6173 33.0984 26.4735 32.7343 25.9317C31.3727 23.9056 29.1048 22.6961 26.6674 22.6961C22.6401 22.6962 19.3637 25.9725 19.3637 29.9999C19.3637 34.0272 22.6401 37.3036 26.6674 37.3036C29.0976 37.3036 31.3619 36.0995 32.7244 34.0826C33.0899 33.5418 33.8244 33.3996 34.3653 33.765C34.9061 34.1304 35.0484 34.865 34.683 35.4058C32.8803 38.0742 29.8838 39.6672 26.6674 39.6672C21.3368 39.6672 17 35.3305 17 29.9999C17 24.6692 21.3368 20.3325 26.6674 20.3325Z" fill="#13B4CA"/>
</svg>
