<svg width="197" height="49" viewBox="0 0 197 49" fill="none" xmlns="http://www.w3.org/2000/svg">
<path d="M0.0192329 17.3454C1.36471 18.1214 2.63964 18.9025 3.9574 19.6004C4.54951 19.9154 4.77123 20.2706 4.75359 20.9585C4.70068 23.1632 4.72588 25.3703 4.73596 27.575C4.76367 34.2772 9.78275 40.0018 16.4295 40.9214C23.9657 41.962 30.7157 37.0765 31.8974 29.5705C32.5374 25.5089 31.6757 21.7295 28.9596 18.5094C27.9492 17.3101 26.702 16.403 25.2734 15.7454C24.2126 15.2566 23.1241 15.1609 21.9727 15.3523C19.5589 15.753 17.1829 15.5388 14.953 14.5284C12.7534 13.5332 11.6322 11.6712 11.2315 9.34306C11.2139 9.23975 11.161 9.11881 11.2718 8.98779C11.5062 9.17676 11.7304 9.37077 11.9698 9.54967C14.0837 11.1345 16.4169 11.7342 19.0575 11.2882C21.3251 10.9052 23.6255 10.807 25.9007 11.2529C28.5993 11.7846 30.6527 13.4248 32.4618 15.37C34.8227 17.9072 36.0472 20.9988 36.5587 24.3751C37.3902 29.8628 36.2009 34.8668 32.6508 39.1854C29.3904 43.1513 25.1096 45.3131 20.0048 45.7742C11.5087 46.5377 3.57189 41.317 0.885982 33.2517C0.339224 31.6114 0.0293113 29.9233 0.0167132 28.1974C-0.0110026 24.68 0.00411532 21.1601 0.00411532 17.6402C0.00411532 17.5646 0.011674 17.4865 0.0192329 17.3454Z" fill="white"/>
<path d="M91.5393 19.9001C91.5393 17.7459 91.5217 15.5916 91.5519 13.4373C91.5595 12.951 91.4007 12.8402 90.9598 12.8704C90.4559 12.9057 89.9494 12.8805 89.443 12.878C88.8786 12.8729 88.5787 12.5756 88.5737 12.0163C88.5687 11.4771 88.5712 10.9379 88.5737 10.4012C88.5762 9.79899 88.8836 9.49916 89.4984 9.49916C90.0048 9.49916 90.5113 9.47144 91.0152 9.50672C91.4234 9.53695 91.5569 9.43113 91.5519 8.99523C91.5343 7.80346 91.4587 6.60412 91.7006 5.42241C92.3481 2.25526 94.4948 0.410896 97.7552 0.221924C98.8865 0.156414 100.008 0.232004 101.116 0.499084C101.386 0.564594 101.504 0.672939 101.494 0.972773C101.469 1.66315 101.492 2.35352 101.484 3.0439C101.479 3.48483 101.068 3.81994 100.623 3.75947C99.6852 3.63601 98.7429 3.52767 97.8031 3.68892C96.3921 3.93332 95.7067 4.6111 95.422 6.00445C95.2028 7.08788 95.3288 8.18644 95.2935 9.27743C95.286 9.51679 95.4296 9.49916 95.5858 9.49916C97.7098 9.49916 99.8339 9.4916 101.958 9.5042C102.27 9.50672 102.263 9.34546 102.26 9.12626C102.255 8.03274 102.258 6.9367 102.258 5.84319C102.258 5.14526 102.53 4.8681 103.21 4.86558C103.835 4.86558 104.457 4.86558 105.082 4.86558C105.72 4.8681 106.017 5.16793 106.017 5.81547C106.017 6.87623 106.042 7.93699 106.004 8.99775C105.989 9.43869 106.133 9.51428 106.536 9.50672C107.766 9.479 108.998 9.49412 110.227 9.49664C110.744 9.49664 111.069 9.81663 111.074 10.3206C111.079 10.8749 111.076 11.4317 111.074 11.986C111.071 12.563 110.764 12.8729 110.184 12.8754C108.97 12.878 107.756 12.9032 106.544 12.8628C106.075 12.8477 106.002 13.0014 106.004 13.4247C106.022 16.287 106.015 19.1468 106.015 22.0091C106.015 23.6267 106.755 24.3876 108.38 24.4254C109.058 24.4405 109.723 24.3321 110.384 24.191C110.847 24.0928 111.286 24.4304 111.291 24.8991C111.296 25.5718 111.275 26.2471 111.301 26.9198C111.311 27.2171 111.19 27.3355 110.928 27.4086C109.106 27.9251 107.272 28.0335 105.455 27.4489C103.538 26.8316 102.323 25.2468 102.288 23.2134C102.23 19.9833 102.265 16.7506 102.255 13.5179C102.253 12.8049 102.366 12.8754 101.613 12.8754C99.6751 12.8729 97.735 12.888 95.7974 12.8628C95.359 12.8578 95.2835 12.9913 95.2835 13.397C95.2986 17.7408 95.2935 22.0821 95.2935 26.426C95.2935 27.0836 95.0113 27.3708 94.3638 27.3708C93.7062 27.3708 93.0485 27.3733 92.3909 27.3708C91.8366 27.3683 91.5343 27.0659 91.5343 26.5116C91.5368 24.3095 91.5393 22.1048 91.5393 19.9001Z" fill="white"/>
<path d="M59.2126 27.8295C57.3128 27.7841 55.214 27.4767 53.2008 26.6629C52.649 26.4412 52.3693 26.1438 52.4424 25.5039C52.5104 24.9042 52.4525 24.2944 52.4575 23.6872C52.4626 23.1631 53.0068 22.8205 53.4981 23.0195C55.9422 24.0072 58.4693 24.4557 61.1049 24.1332C61.9943 24.0248 62.861 23.8107 63.627 23.3168C64.7835 22.5735 65.1665 21.4548 65.1287 20.1497C65.0959 18.9201 64.4081 18.1264 63.3498 17.6074C62.2689 17.0757 61.0897 16.854 59.9358 16.5567C58.5701 16.2065 57.1843 15.9142 55.9094 15.2692C53.4503 14.027 52.3215 11.9382 52.45 9.18682C52.6238 5.47038 55.1989 2.90541 59.1597 2.3259C62.1455 1.89 65.0279 2.35361 67.8196 3.45721C68.127 3.57815 68.2555 3.73688 68.2404 4.08711C68.2077 4.82536 68.2329 5.56864 68.2303 6.30941C68.2278 6.85869 67.7239 7.1938 67.2049 6.98971C65.2295 6.21619 63.2012 5.70722 61.0595 5.75258C60.16 5.77273 59.2781 5.89619 58.4517 6.2691C57.1667 6.85113 56.5796 7.87914 56.5267 9.26745C56.4713 10.6432 57.139 11.525 58.3308 12.0844C59.5427 12.6538 60.8605 12.8755 62.1404 13.2283C63.3221 13.5533 64.5189 13.833 65.6276 14.3848C68.4621 15.7983 69.4473 18.1491 69.15 21.1752C68.8376 24.3625 66.6883 26.5042 63.3675 27.3608C62.09 27.6984 60.7849 27.8194 59.2126 27.8295Z" fill="white"/>
<path d="M119.593 27.8291C117.718 27.7838 115.617 27.4789 113.604 26.6651C113.054 26.4434 112.765 26.1536 112.838 25.5111C112.903 24.9291 112.85 24.3344 112.853 23.7448C112.855 23.1401 113.379 22.8025 113.936 23.0318C116.068 23.9111 118.285 24.3244 120.59 24.2185C121.568 24.1732 122.528 24.017 123.443 23.6315C125.499 22.7647 125.819 20.6608 125.345 19.2196C125.098 18.4738 124.521 18.0077 123.846 17.6574C122.621 17.025 121.266 16.8058 119.951 16.4606C118.716 16.1356 117.469 15.8534 116.317 15.2714C113.856 14.0242 112.722 11.943 112.85 9.19153C113.024 5.4499 115.612 2.90509 119.555 2.32306C122.541 1.88212 125.423 2.34825 128.215 3.45185C128.517 3.57027 128.661 3.72144 128.643 4.07671C128.608 4.79984 128.636 5.52297 128.633 6.24862C128.631 6.87096 128.144 7.20104 127.565 6.97427C125.605 6.20579 123.591 5.70942 121.467 5.75225C120.603 5.76989 119.756 5.88832 118.953 6.22847C117.632 6.7853 117.003 7.79819 116.927 9.21169C116.851 10.6277 117.532 11.5373 118.769 12.1067C119.971 12.6585 121.268 12.8828 122.533 13.228C123.7 13.548 124.881 13.8201 125.975 14.3593C128.865 15.7879 129.843 18.1286 129.548 21.1698C129.238 24.3697 127.086 26.5038 123.773 27.363C122.493 27.6981 121.188 27.8191 119.593 27.8291Z" fill="white"/>
<path d="M11.4734 19.1744C10.1582 18.4387 9.00669 17.6929 7.89806 16.8816C6.32834 15.7301 4.872 14.4627 3.74069 12.8603C1.74011 10.0282 1.86357 7.24655 4.09344 4.5934C4.63767 3.94585 5.2575 3.37642 5.92016 2.85738C7.34626 1.73867 8.91094 0.859322 10.5638 0.128633C10.7855 0.0303677 11.0073 -0.00238598 11.2491 0.000133638C20.0451 0.116036 28.8386 0.229417 37.6346 0.34028C38.2217 0.347839 38.8112 0.34028 39.4008 0.34028C39.4336 0.60484 39.2623 0.690506 39.159 0.803888C38.2368 1.83189 37.2995 2.84478 36.3874 3.88286C36.1732 4.12726 35.9389 4.12726 35.6693 4.12726C28.8613 4.12474 22.0533 4.12727 15.2427 4.12223C14.8144 4.12223 14.4138 4.19026 14.0081 4.32632C12.2469 4.92599 10.5462 5.63652 9.07472 6.80562C6.80454 8.61219 6.1948 10.968 7.32862 13.6413C8.15254 15.584 9.49046 17.1537 10.9947 18.5974C11.1156 18.7133 11.2391 18.8292 11.36 18.9451C11.3877 18.9729 11.3953 19.0081 11.4734 19.1744Z" fill="white"/>
<path d="M189.386 27.8295C187.756 27.8093 186.171 27.58 184.677 26.877C184.39 26.741 184.286 26.5772 184.299 26.2648C184.324 25.6601 184.304 25.0528 184.307 24.4481C184.309 23.8686 184.798 23.5285 185.352 23.7401C187.05 24.3877 188.794 24.6573 190.601 24.3448C191.067 24.2642 191.515 24.1181 191.926 23.8762C192.611 23.4756 192.951 22.8835 192.924 22.0822C192.899 21.3238 192.488 20.83 191.84 20.5125C190.989 20.0917 190.051 19.9355 189.142 19.7062C188.555 19.5576 187.968 19.4139 187.403 19.1922C185.239 18.3381 184.203 16.6902 184.382 14.3797C184.599 11.5754 186.337 9.68318 189.167 9.19941C191.47 8.80635 193.687 9.16918 195.841 10.0183C196.091 10.1166 196.151 10.2652 196.146 10.5147C196.131 11.1546 196.144 11.7946 196.141 12.4321C196.139 13.0116 195.647 13.3618 195.103 13.1703C193.682 12.6664 192.233 12.3137 190.706 12.4245C190.248 12.4573 189.804 12.5581 189.389 12.742C188.658 13.067 188.285 13.6365 188.262 14.4427C188.24 15.2465 188.666 15.7328 189.351 16.0351C190.328 16.466 191.397 16.5718 192.415 16.8641C192.657 16.9346 192.901 16.9951 193.143 17.0682C195.715 17.8316 197.003 19.6987 196.806 22.3745C196.607 25.1083 194.899 26.9325 191.941 27.5775C191.099 27.7589 190.245 27.8244 189.386 27.8295Z" fill="white"/>
<path d="M20.8565 29.7591C20.6071 30.3286 20.3526 30.8955 19.8839 31.3314C19.1255 32.0369 18.1907 32.0469 17.455 31.3163C16.6109 30.4772 16.3136 29.3988 16.1977 28.26C16.1599 27.8921 16.1725 27.5217 16.1599 27.1513C16.0743 26.9472 16.0088 26.7457 16.1902 26.5542C16.3716 25.9444 16.4673 25.3095 16.7823 24.7426C17.2056 23.9791 17.7145 23.2787 18.6795 23.2837C19.6647 23.2888 20.1964 24.0043 20.5894 24.798C21.2017 26.0326 21.2697 27.3479 21.1009 28.6908C21.0807 28.8571 21.0581 29.0234 21.0379 29.1897C21.0631 29.4089 21.0631 29.618 20.8565 29.7591Z" fill="white"/>
<path d="M59.127 43.7809C59.641 42.0247 60.1298 40.3542 60.6186 38.6837C60.7244 38.3209 61.5004 38.084 61.8053 38.3209C61.9414 38.4267 61.8935 38.5476 61.8532 38.6837C61.1502 40.9614 60.4498 43.2392 59.7518 45.5194C59.5931 46.041 59.1673 45.7436 58.8624 45.8167C58.5575 45.8898 58.4618 45.6958 58.3963 45.4363C57.9831 43.8086 57.5572 42.1834 57.1012 40.4197C56.8669 41.3091 56.6628 42.07 56.4612 42.836C56.2294 43.7128 55.98 44.5846 55.7784 45.469C55.7078 45.7789 55.5541 45.8646 55.2896 45.8142C54.9847 45.7562 54.5841 46.0309 54.4228 45.4841C53.7526 43.2316 53.0572 40.9841 52.3567 38.7391C52.2358 38.3486 52.3819 38.2906 52.7297 38.2579C53.2663 38.205 53.5133 38.3687 53.6544 38.9256C54.0373 40.4222 54.5035 41.8962 54.9394 43.3777C54.9721 43.4886 55.0225 43.5919 55.0981 43.7783C55.5365 42.0726 55.9522 40.4499 56.368 38.8273C56.4914 38.341 57.1617 38.0513 57.6001 38.2906C57.7361 38.3662 57.7336 38.5123 57.7664 38.6383C58.1695 40.2005 58.5726 41.7601 58.9783 43.3198C59.0111 43.4483 59.0589 43.5717 59.127 43.7809Z" fill="white"/>
<path d="M136.971 40.8481C137.633 40.3039 138.298 40.0973 139.062 40.2812C139.314 40.3417 139.578 40.4299 139.719 40.6289C140.017 41.0472 140.226 40.9918 140.596 40.6768C141.272 40.0998 142.083 40.062 142.872 40.4299C143.62 40.7801 143.816 41.4705 143.814 42.239C143.811 43.2493 143.791 44.2572 143.821 45.2675C143.837 45.7337 143.643 45.8244 143.224 45.8294C142.776 45.8345 142.637 45.6833 142.65 45.2449C142.675 44.2874 142.667 43.3274 142.652 42.37C142.64 41.5813 142.355 41.274 141.71 41.2916C141.002 41.3117 140.42 41.8484 140.417 42.4834C140.415 43.4433 140.397 44.4008 140.425 45.3608C140.44 45.8294 140.173 45.8219 139.848 45.8244C139.515 45.8269 139.263 45.8219 139.279 45.3557C139.311 44.4159 139.304 43.4711 139.281 42.5312C139.271 42.0676 139.284 41.5536 138.727 41.3369C138.251 41.153 137.588 41.4125 137.2 41.8812C137.066 42.0424 137.061 42.2138 137.061 42.3977C137.064 43.3728 137.041 44.3504 137.071 45.3255C137.086 45.8093 136.822 45.8219 136.467 45.8244C136.114 45.8269 135.895 45.7815 135.902 45.3406C135.922 43.8944 135.905 42.4481 135.915 41.0018C135.917 40.7625 135.774 40.4122 136.195 40.3619C136.537 40.3165 136.93 40.2434 136.971 40.8481Z" fill="white"/>
<path d="M70.2989 40.8509C70.9792 40.2915 71.6595 40.0899 72.4406 40.294C72.6749 40.3545 72.9193 40.4427 73.0504 40.6291C73.3426 41.0398 73.5543 41.0046 73.9272 40.6821C74.5999 40.1025 75.4138 40.0648 76.2024 40.4326C76.9533 40.7803 77.1498 41.4707 77.1498 42.2417C77.1473 43.2672 77.1296 44.2952 77.1573 45.3207C77.1699 45.7893 76.9356 45.8296 76.5652 45.8322C76.1822 45.8322 75.9706 45.7641 75.9857 45.3056C76.0159 44.3305 76.0034 43.3554 75.9882 42.3778C75.9756 41.5866 75.6934 41.2792 75.0484 41.2968C74.3404 41.3145 73.7533 41.8512 73.7533 42.4836C73.7508 43.4436 73.7332 44.401 73.7609 45.361C73.776 45.8271 73.5165 45.8271 73.1864 45.8271C72.8564 45.8271 72.5994 45.8322 72.6145 45.3635C72.6472 44.4237 72.6397 43.4788 72.617 42.539C72.6069 42.0754 72.6195 41.5614 72.0677 41.3447C71.594 41.1583 70.9314 41.4178 70.5383 41.8864C70.4048 42.0477 70.3972 42.2165 70.3972 42.403C70.3997 43.3453 70.3745 44.2876 70.4073 45.2275C70.4249 45.6986 70.2687 45.8397 69.8051 45.8397C69.3541 45.8397 69.2281 45.6835 69.2357 45.2501C69.2583 43.8215 69.2407 42.3904 69.2483 40.9617C69.2508 40.7325 69.1349 40.4049 69.5254 40.3696C69.8605 40.3268 70.2637 40.2285 70.2989 40.8509Z" fill="white"/>
<path d="M84.5902 43.31C84.5902 44.0785 84.5625 44.7134 84.6003 45.3433C84.6255 45.7968 84.3912 45.8346 84.0435 45.822C83.7285 45.8094 83.4513 45.8498 83.4539 45.371C83.4715 42.9497 83.4715 40.5283 83.4539 38.1095C83.4488 37.6308 83.7184 37.666 84.0359 37.661C84.3685 37.656 84.6104 37.6585 84.6003 38.1246C84.5726 39.518 84.5902 40.9138 84.5902 42.3097C84.7716 42.3651 84.8371 42.219 84.9278 42.1333C85.3738 41.7226 85.8551 41.3422 86.2406 40.8836C86.6513 40.3948 87.1376 40.2915 87.7171 40.352C87.8506 40.3645 87.9892 40.3393 88.0597 40.4981C88.1378 40.6719 87.9993 40.7324 87.9035 40.8231C87.3013 41.385 86.7117 41.962 86.0969 42.5087C85.8021 42.7708 85.6913 42.9396 86.039 43.2823C86.6865 43.9172 87.2711 44.6126 87.8758 45.2904C87.9665 45.3937 88.1404 45.4743 88.0648 45.6658C87.9816 45.88 87.7876 45.8019 87.6289 45.8246C87.1073 45.8926 86.7092 45.7414 86.364 45.3055C85.845 44.6454 85.2554 44.0457 84.5902 43.31Z" fill="white"/>
<path d="M193.629 44.1209C194.123 42.9266 194.569 41.8457 195.018 40.7623C195.166 40.4045 195.821 40.1853 196.136 40.3919C196.3 40.5002 196.262 40.6363 196.199 40.79C195.179 43.224 194.166 45.6579 193.145 48.0893C193.04 48.3413 192.233 48.4597 192.034 48.2682C191.886 48.1246 191.999 47.986 192.052 47.855C192.306 47.2327 192.551 46.6053 192.838 45.9981C192.992 45.6781 192.967 45.4135 192.833 45.096C192.266 43.7304 191.719 42.3572 191.175 40.984C191.099 40.7925 190.85 40.5632 191.18 40.3793C191.482 40.2105 192.11 40.3818 192.221 40.6539C192.652 41.7122 193.075 42.7755 193.501 43.8337C193.523 43.8917 193.554 43.9496 193.629 44.1209Z" fill="white"/>
<path d="M16.1901 26.5568C16.18 26.7558 16.17 26.9549 16.1599 27.1539C15.5174 26.9448 14.9051 26.6727 14.3835 26.2342C13.5848 25.564 13.4437 24.7678 13.9552 23.8582C14.3584 23.1402 14.953 22.5984 15.598 22.1071C17.9009 20.356 20.5087 19.1718 23.1619 18.0757C23.2702 18.0304 23.2854 18.0858 23.2677 18.1765C21.5493 19.134 19.836 20.104 18.3318 21.3941C17.5104 22.0996 16.7369 22.8504 16.2355 23.8255C15.7744 24.72 15.6308 25.6371 16.1901 26.5568Z" fill="white"/>
<path d="M20.8565 29.7593C20.9169 29.5703 20.9774 29.3814 21.0379 29.1924C21.5972 29.3839 22.1314 29.6258 22.59 30.0062C23.4441 30.7117 23.5953 31.4953 23.0611 32.4628C22.7386 33.0474 22.2674 33.5009 21.766 33.9293C20.1988 35.2596 18.3973 36.1944 16.5454 37.046C15.7971 37.3887 15.0487 37.7314 14.2979 38.0665C14.1392 38.137 13.9804 38.2529 13.7637 38.1395C15.6408 37.1443 17.4298 36.0558 19.0096 34.6574C19.7201 34.0275 20.3551 33.3346 20.7909 32.4855C21.2495 31.5911 21.4158 30.6815 20.8565 29.7593Z" fill="white"/>
<path d="M116.846 42.4156C116.846 41.8764 116.872 41.3372 116.839 40.8005C116.811 40.3243 117.103 40.352 117.423 40.3445C117.766 40.3344 117.993 40.3621 117.988 40.8182C117.975 41.8411 117.912 42.8691 118.023 43.8921C118.099 44.6026 118.494 44.9453 119.144 44.9226C119.802 44.9 120.172 44.5497 120.2 43.8266C120.238 42.8364 120.245 41.8437 120.223 40.8509C120.213 40.3848 120.442 40.3369 120.815 40.3394C121.195 40.3394 121.409 40.4024 121.397 40.8635C121.367 41.8537 121.399 42.849 121.384 43.8392C121.364 45.1771 120.485 45.9557 119.028 45.9431C117.693 45.933 116.864 45.1267 116.851 43.8241C116.844 43.3579 116.846 42.8868 116.846 42.4156Z" fill="white"/>
<path d="M101.268 42.3854C101.268 41.8814 101.295 41.375 101.26 40.8736C101.227 40.4226 101.434 40.3369 101.824 40.342C102.192 40.347 102.416 40.3797 102.409 40.8509C102.394 41.8588 102.336 42.8691 102.442 43.8745C102.517 44.5951 102.9 44.9403 103.543 44.9277C104.21 44.9176 104.591 44.5522 104.621 43.7989C104.659 42.8263 104.664 41.8487 104.641 40.8736C104.631 40.4327 104.815 40.3369 105.213 40.3369C105.624 40.3369 105.831 40.4175 105.815 40.8937C105.783 41.8688 105.815 42.8439 105.803 43.819C105.788 45.167 104.916 45.9531 103.467 45.9431C102.104 45.9355 101.278 45.1292 101.27 43.7938C101.265 43.3277 101.268 42.8565 101.268 42.3854Z" fill="white"/>
<path d="M166.72 43.5542C166.72 42.9671 166.702 42.3776 166.727 41.7905C166.74 41.4806 166.652 41.3546 166.337 41.3999C165.959 41.4554 165.795 41.3218 165.797 40.9036C165.8 40.4954 165.908 40.2913 166.337 40.3518C166.652 40.3971 166.762 40.2686 166.727 39.9587C166.705 39.7597 166.715 39.5556 166.727 39.354C166.818 37.9833 168.335 37.046 169.59 37.5978C169.942 37.7541 169.715 38.1068 169.746 38.3638C169.771 38.5906 169.582 38.6208 169.395 38.6032C169.312 38.5956 169.227 38.5956 169.144 38.5881C168.04 38.4923 167.841 39.0239 167.851 40.125C167.853 40.3064 167.959 40.3493 168.113 40.3493C168.35 40.3493 168.584 40.3619 168.821 40.3467C169.186 40.3241 169.423 40.3745 169.423 40.8456C169.423 41.3042 169.252 41.4176 168.826 41.4075C167.851 41.3873 167.851 41.405 167.851 42.3675C167.851 43.3249 167.831 44.2849 167.861 45.2424C167.874 45.6732 167.763 45.832 167.304 45.832C166.831 45.832 166.684 45.6783 166.715 45.2172C166.75 44.6654 166.72 44.1085 166.72 43.5542Z" fill="white"/>
<path d="M156.75 45.948C156.374 45.9606 155.963 45.8825 155.56 45.7515C155.351 45.6835 155.233 45.5751 155.225 45.3232C155.205 44.6807 155.268 44.6177 155.883 44.7915C156.362 44.9276 156.843 44.9654 157.327 44.8318C157.616 44.7512 157.856 44.5874 157.871 44.2473C157.886 43.8996 157.644 43.7409 157.357 43.6501C157.037 43.5494 156.704 43.4864 156.384 43.3881C155.641 43.1613 155.301 42.7658 155.273 42.1283C155.235 41.259 155.568 40.677 156.288 40.3973C157.085 40.0899 157.881 40.1806 158.657 40.4679C159.088 40.6266 158.891 41.0272 158.853 41.2993C158.806 41.6496 158.518 41.4581 158.329 41.4077C157.886 41.2893 157.445 41.2011 156.986 41.3044C156.692 41.3699 156.51 41.5362 156.485 41.8511C156.46 42.1711 156.679 42.3097 156.921 42.3903C157.238 42.4962 157.573 42.5491 157.898 42.6398C158.657 42.8539 159.025 43.2697 159.085 43.9651C159.156 44.7361 158.836 45.3307 158.168 45.6684C157.74 45.8876 157.276 45.9531 156.75 45.948Z" fill="white"/>
<path d="M188.668 45.9477C188.225 45.9603 187.799 45.8797 187.381 45.7361C187.181 45.6681 187.101 45.5471 187.093 45.3254C187.066 44.6829 187.136 44.6149 187.748 44.7912C188.227 44.9273 188.708 44.9651 189.192 44.8341C189.482 44.7535 189.721 44.5922 189.739 44.252C189.757 43.9018 189.515 43.7431 189.227 43.6524C188.907 43.5516 188.575 43.4886 188.255 43.3903C187.512 43.1636 187.169 42.768 187.141 42.133C187.103 41.2638 187.436 40.6817 188.154 40.3996C188.95 40.0896 189.746 40.1829 190.522 40.4676C190.953 40.6263 190.757 41.0244 190.722 41.2991C190.676 41.6493 190.389 41.4603 190.2 41.4099C189.757 41.2915 189.316 41.2033 188.857 41.3066C188.562 41.3721 188.381 41.5359 188.353 41.8509C188.325 42.1708 188.542 42.3119 188.786 42.3926C189.104 42.4984 189.439 42.5513 189.764 42.642C190.522 42.8562 190.89 43.2719 190.953 43.9673C191.024 44.7358 190.706 45.3355 190.039 45.6731C189.608 45.8848 189.147 45.9578 188.668 45.9477Z" fill="white"/>
<path d="M123.584 45.9478C123.176 45.9579 122.78 45.8772 122.392 45.7588C122.158 45.6858 122.044 45.5598 122.042 45.2902C122.037 44.6703 122.09 44.6149 122.684 44.7863C123.143 44.9198 123.609 44.9651 124.078 44.8492C124.388 44.7737 124.657 44.6275 124.685 44.2647C124.713 43.8893 124.448 43.733 124.143 43.6423C123.821 43.5441 123.493 43.4735 123.171 43.3753C122.584 43.1939 122.15 42.8688 122.092 42.1961C122.029 41.4427 122.243 40.8179 122.956 40.4701C123.798 40.0594 124.667 40.1527 125.504 40.4878C125.904 40.649 125.715 41.0547 125.662 41.3319C125.607 41.6317 125.34 41.4604 125.164 41.4125C124.788 41.3092 124.413 41.2285 124.02 41.2714C123.662 41.3092 123.339 41.4024 123.309 41.8358C123.276 42.2616 123.599 42.3573 123.919 42.4405C124.196 42.5136 124.476 42.569 124.75 42.6496C125.474 42.8613 125.841 43.277 125.904 43.9523C125.972 44.6905 125.713 45.2751 125.05 45.6429C124.594 45.8898 124.095 45.9579 123.584 45.9478Z" fill="white"/>
<path d="M126.877 43.0832C126.877 42.7985 126.877 42.5112 126.877 42.2265C126.877 41.5185 126.879 41.5084 126.169 41.4026C125.776 41.3447 125.884 41.0574 125.867 40.8231C125.846 40.5611 125.897 40.3015 126.224 40.3595C126.897 40.4804 126.902 40.0949 126.885 39.6112C126.859 38.9687 127.162 38.7671 127.794 38.9409C128.011 38.9989 128.018 39.1501 128.036 39.3239C128.069 39.6515 127.877 40.0823 128.137 40.2789C128.346 40.4351 128.752 40.3595 129.067 40.3418C129.467 40.3192 129.593 40.4804 129.591 40.871C129.588 41.2514 129.487 41.4102 129.074 41.4076C128.033 41.4001 128.033 41.4177 128.033 42.4558C128.033 42.9597 128.028 43.4637 128.033 43.9676C128.044 44.7285 128.255 44.9175 129.019 44.8646C129.651 44.8192 129.732 44.915 129.654 45.5575C129.631 45.7338 129.568 45.8271 129.389 45.8623C128.941 45.953 128.492 45.9984 128.041 45.8825C127.285 45.6885 126.9 45.2198 126.879 44.4438C126.869 43.9903 126.877 43.5367 126.877 43.0832Z" fill="white"/>
<path d="M111.933 43.1031C111.943 41.0042 113.604 39.747 115.569 40.3491C116.073 40.5028 116.216 40.7548 116.085 41.2486C116.035 41.4401 115.934 41.546 115.723 41.4754C115.627 41.4452 115.529 41.4175 115.433 41.3897C114.543 41.1453 113.853 41.3192 113.47 41.8811C113.027 42.5337 113.027 43.7229 113.488 44.315C114.017 44.9953 114.737 44.9197 115.473 44.7963C115.692 44.761 115.99 44.436 116.141 44.8819C116.3 45.3531 116.133 45.6529 115.67 45.7966C114.009 46.3106 112.465 45.5874 112.044 44.0983C111.953 43.7758 111.931 43.4407 111.933 43.1031Z" fill="white"/>
<path d="M161.864 41.7198C161.864 40.5255 161.887 39.3312 161.854 38.1369C161.839 37.6305 162.121 37.6683 162.462 37.6557C162.827 37.6406 163.008 37.7086 163.003 38.1445C162.983 40.5331 162.983 42.9217 163.003 45.3103C163.008 45.7714 162.807 45.8268 162.429 45.8268C162.046 45.8243 161.844 45.7613 161.854 45.3027C161.885 44.1084 161.864 42.9141 161.864 41.7198Z" fill="white"/>
<path d="M151.232 40.9313C151.761 40.4576 152.285 40.2233 152.902 40.2183C153.136 40.2158 153.376 40.2107 153.315 40.5408C153.265 40.828 153.542 41.269 152.993 41.3445C152.557 41.405 152.131 41.4655 151.748 41.7099C151.458 41.8963 151.307 42.1206 151.317 42.491C151.342 43.4308 151.305 44.3731 151.335 45.3129C151.35 45.7841 151.106 45.8169 150.74 45.8244C150.352 45.832 150.153 45.7514 150.161 45.3003C150.183 43.8894 150.161 42.4784 150.178 41.0674C150.181 40.8079 149.992 40.4224 150.483 40.3493C150.894 40.2913 151.221 40.3518 151.232 40.9313Z" fill="white"/>
<path d="M107.887 40.9693C108.446 40.4755 108.965 40.2235 109.582 40.221C109.799 40.221 110.069 40.1731 110.016 40.5208C109.97 40.8207 110.25 41.2843 109.665 41.3523C109.227 41.4027 108.804 41.4783 108.426 41.7277C108.156 41.9066 108.01 42.1233 108.02 42.4735C108.043 43.3629 108.015 44.2549 108.033 45.1443C108.04 45.56 108.02 45.8296 107.463 45.8372C106.876 45.8448 106.861 45.555 106.866 45.1191C106.884 43.7585 106.864 42.3979 106.879 41.0373C106.881 40.7879 106.712 40.4099 107.166 40.357C107.536 40.3142 107.962 40.2411 107.887 40.9693Z" fill="white"/>
<path d="M164.192 43.0833C164.192 42.3098 164.208 41.5337 164.187 40.7602C164.175 40.2991 164.475 40.352 164.762 40.3495C165.052 40.347 165.334 40.3016 165.329 40.7602C165.311 42.3098 165.311 43.8568 165.329 45.4064C165.334 45.8675 165.052 45.8196 164.762 45.8171C164.475 45.8146 164.175 45.8675 164.187 45.4064C164.208 44.6329 164.192 43.8568 164.192 43.0833Z" fill="white"/>
<path d="M154.89 39.7498C154.89 40.1025 154.872 40.4578 154.895 40.808C154.928 41.3044 154.59 41.2313 154.29 41.2288C154.011 41.2263 153.698 41.3019 153.713 40.8307C153.736 40.1076 153.736 39.3844 153.713 38.6638C153.701 38.243 153.958 38.2456 154.24 38.2707C154.507 38.2934 154.898 38.1196 154.89 38.6386C154.885 39.0115 154.89 39.3819 154.89 39.7498Z" fill="white"/>
<path d="M165.286 38.8222C165.412 39.3387 165.178 39.4546 164.704 39.4723C164.162 39.4899 164.175 39.2052 164.165 38.8197C164.155 38.4065 164.205 38.1772 164.722 38.1822C165.233 38.1847 165.402 38.3586 165.286 38.8222Z" fill="white"/>
<path d="M23.2677 18.1764C23.2325 18.1437 23.1972 18.1109 23.1619 18.0756C23.4013 17.932 23.6381 17.7808 23.9606 17.8514C23.7288 17.9597 23.4996 18.0681 23.2677 18.1764Z" fill="white"/>
<path d="M13.7058 38.3384C13.5168 38.4266 13.3253 38.5148 13.1364 38.603C13.2598 38.3812 13.4236 38.2426 13.7058 38.3384Z" fill="white"/>
<path d="M164.477 10.4036C164.477 9.80141 164.162 9.49654 163.55 9.49402C163.044 9.49402 162.537 9.52173 162.033 9.48394C161.63 9.4537 161.421 9.56205 161.345 9.98282C161.297 10.26 161.245 10.5623 161.056 10.8219C160.642 10.4716 160.259 10.1441 159.821 9.8896C159.367 9.62756 158.886 9.43355 158.382 9.28993C155.039 8.32995 151.403 9.96519 149.72 13.2205C148.337 15.8938 148.198 18.7335 148.79 21.6209C149.198 23.6114 150.113 25.3475 151.879 26.4687C154.762 28.303 157.692 28.3105 160.698 26.509C160.698 26.955 160.708 27.3707 160.695 27.7864C160.615 30.5177 159.312 32.1177 156.805 32.5233C154.739 32.8584 152.711 32.672 150.735 31.9766C150.027 31.7271 149.604 32.0093 149.601 32.745C149.601 33.1482 149.601 33.5538 149.601 33.957C149.601 35.0026 149.599 35.0077 150.597 35.3604C152.91 36.1818 155.281 36.2322 157.674 35.8618C161.885 35.2092 164.457 32.2512 164.467 28.0258C164.487 22.1551 164.477 16.2793 164.477 10.4036ZM160.7 18.6453C160.7 19.9076 160.69 21.1674 160.708 22.4297C160.713 22.7497 160.605 22.9614 160.363 23.1579C159.173 24.128 157.828 24.5991 156.291 24.4379C154.404 24.2413 153.275 23.1226 152.761 21.3765C152.161 19.3407 152.184 17.2822 152.92 15.2866C154.056 12.2026 157.599 11.4593 160.08 13.727C160.519 14.1276 160.746 14.5408 160.715 15.1657C160.66 16.3222 160.7 17.4862 160.7 18.6453Z" fill="white"/>
<path d="M145.966 15.1529C145.928 12.3637 144.378 10.3128 141.692 9.50899C138.865 8.66492 136.069 8.93704 133.34 10.018C133.025 10.1414 132.924 10.3304 132.942 10.6655C132.974 11.2349 132.949 11.8094 132.952 12.3814C132.954 13.0516 133.403 13.3716 134.033 13.1574C135.431 12.6837 136.862 12.4141 138.344 12.4418C141.105 12.4922 142.521 14.004 142.179 16.5488C140.506 16.1205 138.82 15.8736 137.086 16.0474C133.425 16.4102 131.251 18.9702 131.526 22.6312C131.702 24.9769 133.184 26.8515 135.416 27.5217C136.716 27.9123 138.036 27.9274 139.359 27.6225C140.521 27.3555 141.566 26.8389 142.519 26.0452C142.574 26.4005 142.627 26.6953 142.667 26.9901C142.703 27.2446 142.768 27.4008 143.101 27.3857C143.806 27.3504 144.517 27.3806 145.225 27.3731C145.63 27.368 145.986 27.0203 145.986 26.6172C145.981 22.7949 146.018 18.9727 145.966 15.1529ZM142.221 21.1597C142.221 21.3688 142.204 21.4721 142.224 21.5704C142.418 22.4749 141.927 22.9864 141.224 23.4324C139.976 24.2236 138.669 24.7073 137.172 24.3521C136.056 24.0875 135.434 23.2661 135.376 22.0391C135.318 20.7792 135.832 19.9654 136.96 19.5925C138.215 19.1768 139.485 19.3582 140.752 19.5396C140.77 19.5421 140.785 19.5497 140.8 19.5547C141.259 19.6479 141.851 19.59 142.131 19.9024C142.418 20.2224 142.171 20.8019 142.221 21.1597Z" fill="white"/>
<path d="M181.59 13.2029C180.895 11.5576 179.814 10.2827 178.121 9.5948C174.367 8.07043 170.071 9.6326 168.219 13.2835C166.634 16.4028 166.579 19.6657 167.735 22.9236C168.549 25.2139 170.257 26.6476 172.575 27.3455C173.563 27.6428 174.578 27.789 175.611 27.8167C177.599 27.8671 179.545 27.6731 181.396 26.8743C181.679 26.7509 181.802 26.5947 181.787 26.2696C181.757 25.6977 181.779 25.1257 181.779 24.5538C181.779 23.8936 181.298 23.551 180.661 23.7576C178.942 24.3169 177.194 24.5462 175.385 24.3598C172.772 24.0902 171.21 22.6313 170.804 20.0537C170.741 19.6456 170.799 19.4994 171.257 19.507C173.026 19.5322 174.798 19.5171 176.569 19.5171C178.373 19.5171 180.177 19.5196 181.981 19.5145C182.167 19.5145 182.399 19.5901 182.407 19.255C182.457 17.1889 182.412 15.1455 181.59 13.2029ZM177.582 16.1458C175.427 16.1458 173.271 16.1433 171.116 16.1433C171.084 16.1433 171.051 16.1332 170.97 16.1181C171.313 14.634 172.026 13.47 173.399 12.7972C175.531 11.7541 177.761 12.8275 178.335 15.1632C178.579 16.1458 178.58 16.1458 177.582 16.1458Z" fill="white"/>
<path d="M86.9385 13.1978C85.3939 10.3758 82.9197 9.09838 79.7651 9.04799C77.1951 9.00515 74.9627 9.81899 73.267 11.8196C70.7928 14.7398 70.3392 20.0915 72.2667 23.6341C73.7483 26.3578 76.1167 27.673 79.168 27.8191C82.6728 27.988 85.6258 26.3956 87.1149 23.2838C87.8481 21.7519 88.1429 20.1318 88.1328 18.4462C88.1454 16.6043 87.8304 14.8255 86.9385 13.1978ZM83.4564 22.1021C82.6425 23.624 81.3953 24.4605 79.6391 24.4605C77.8855 24.463 76.5602 23.6668 75.8068 22.1223C74.6453 19.7362 74.6478 17.2645 75.7514 14.8633C76.5652 13.0945 78.0442 12.2706 80.007 12.4218C81.927 12.5704 83.0784 13.7168 83.7512 15.4277C84.1316 16.3952 84.2375 17.4131 84.2601 18.4562C84.2274 19.7161 84.0661 20.9607 83.4564 22.1021Z" fill="white"/>
<path d="M186.36 45.3633C186.363 44.2522 186.358 43.141 186.363 42.0299C186.365 41.3597 186.063 40.8482 185.486 40.5433C184.546 40.0495 183.558 40.1225 182.601 40.4879C182.193 40.6441 182.394 41.0598 182.435 41.3345C182.48 41.6242 182.755 41.468 182.936 41.4176C183.347 41.3067 183.762 41.2614 184.186 41.2967C184.926 41.3546 185.206 41.6721 185.206 42.4985C184.732 42.3877 184.286 42.3196 183.83 42.3398C182.641 42.3902 181.888 43.1511 181.941 44.2497C181.994 45.3633 182.795 46.021 184.007 45.9428C184.382 45.9176 184.732 45.8068 185.055 45.6103C185.168 45.5397 185.246 45.4137 185.37 45.6682C185.521 45.9832 185.884 45.8043 186.148 45.7967C186.405 45.7917 186.36 45.5422 186.36 45.3633ZM184.002 44.9199C183.493 44.9325 183.143 44.6175 183.143 44.1464C183.143 43.6626 183.503 43.3754 184.118 43.3653C185.005 43.3502 185.234 43.4711 185.234 43.9549C185.234 44.4739 184.69 44.9022 184.002 44.9199Z" fill="white"/>
<path d="M82.3628 45.3307C82.3679 44.2372 82.3628 43.1412 82.3654 42.0477C82.3679 41.3346 82.0428 40.8105 81.4155 40.5057C80.4958 40.0597 79.5459 40.1353 78.6187 40.478C78.1954 40.6342 78.402 41.0423 78.4322 41.317C78.4625 41.6118 78.7371 41.4732 78.921 41.4228C79.3469 41.3044 79.7802 41.259 80.2212 41.2968C80.9493 41.3623 81.2416 41.7176 81.1887 42.4811C80.7276 42.3979 80.269 42.3122 79.7979 42.3374C78.7119 42.4004 77.9913 43.053 77.9409 44.0281C77.888 45.0385 78.4549 45.7742 79.435 45.9228C79.9994 46.0085 80.5437 45.9153 81.04 45.6155C81.1862 45.5273 81.2466 45.4441 81.3852 45.6936C81.5339 45.9632 81.9093 45.8221 82.1789 45.7868C82.4384 45.754 82.3603 45.5021 82.3628 45.3307ZM80.0045 44.92C79.4955 44.9326 79.1453 44.6177 79.1453 44.144C79.1453 43.6628 79.5056 43.373 80.1204 43.3629C81.0098 43.3478 81.2366 43.4687 81.2366 43.9525C81.2366 44.4741 80.6923 44.9024 80.0045 44.92Z" fill="white"/>
<path d="M178.118 43.4183C178.622 43.4309 179.129 43.4234 179.633 43.4234C179.902 43.4234 180.172 43.4234 180.442 43.4234C181.492 43.4234 181.492 43.4234 181.394 42.3601C181.291 41.2187 180.683 40.4779 179.683 40.2688C178.615 40.0471 177.562 40.5409 177.045 41.5034C176.74 42.0678 176.665 42.6775 176.677 43.3075C176.72 45.4592 179.151 46.787 181.024 45.6784C181.371 45.4743 181.202 45.1266 181.175 44.8621C181.142 44.5723 180.887 44.6857 180.691 44.7411C180.185 44.8873 179.663 44.915 179.141 44.852C178.481 44.7713 177.99 44.3178 177.877 43.7207C177.839 43.5065 177.877 43.4108 178.118 43.4183ZM178.116 41.8738C178.393 41.4278 178.799 41.2489 179.315 41.2993C179.759 41.3447 179.99 41.6319 180.137 42.0174C180.23 42.2618 180.187 42.4029 179.882 42.3878C179.597 42.3727 179.31 42.3853 179.023 42.3853C178.804 42.3853 178.585 42.3953 178.368 42.3827C178.229 42.3727 178.033 42.4684 177.965 42.2845C177.912 42.1384 178.038 41.9998 178.116 41.8738Z" fill="white"/>
<path d="M63.2188 43.4158C63.7076 43.431 64.1964 43.4209 64.6827 43.4209C64.9195 43.4209 65.1539 43.4209 65.3907 43.4209C66.6505 43.4209 66.6732 43.3932 66.449 42.1334C66.1516 40.4704 64.5693 39.712 63.0777 40.5208C61.7927 41.2162 61.3089 43.373 62.1278 44.7764C62.7678 45.8775 65.0254 46.389 66.1214 45.6659C66.4364 45.4592 66.2953 45.1065 66.2449 44.8394C66.192 44.5497 65.9324 44.6958 65.746 44.7462C65.2521 44.8823 64.7507 44.91 64.2468 44.852C63.5766 44.7764 63.0979 44.3481 62.9643 43.7459C62.9089 43.5065 62.9542 43.4083 63.2188 43.4158ZM63.0575 42.1207C63.1936 41.6672 63.695 41.2994 64.2115 41.2893C64.7155 41.2792 65.0279 41.5312 65.2017 41.9897C65.305 42.2568 65.2773 42.408 64.9397 42.3878C64.6701 42.3727 64.4005 42.3853 64.1309 42.3853C63.8437 42.3853 63.5589 42.3828 63.2717 42.3853C63.0853 42.3878 62.9895 42.3425 63.0575 42.1207Z" fill="white"/>
<path d="M89.5614 43.4158C90.0326 43.4384 90.5038 43.4208 90.9749 43.4208C91.1614 43.4208 91.3453 43.4208 91.5318 43.4208C92.9906 43.4208 93.0687 43.315 92.6757 41.8511C92.4665 41.0675 92.0231 40.498 91.1967 40.2965C89.632 39.9135 88.2941 40.9012 88.0925 42.6145C87.9665 43.6904 88.0597 44.7461 89.0298 45.4289C90.0452 46.1445 91.1916 46.0664 92.3229 45.7086C92.7966 45.5599 92.5824 45.1341 92.5497 44.8469C92.5169 44.5597 92.2499 44.6882 92.0584 44.7436C91.5494 44.8872 91.0304 44.9149 90.5088 44.8494C89.8814 44.7713 89.448 44.3808 89.2843 43.8038C89.2061 43.5291 89.2313 43.4006 89.5614 43.4158ZM89.5261 41.8284C89.8058 41.4101 90.2039 41.2464 90.7003 41.2993C91.1185 41.3446 91.3478 41.6041 91.5015 41.972C91.6275 42.2794 91.5595 42.4104 91.2143 42.3877C90.9623 42.3701 90.7104 42.3852 90.4559 42.3852C90.2367 42.3852 90.0175 42.3978 89.8008 42.3802C89.6471 42.3676 89.4279 42.481 89.3523 42.2819C89.2893 42.1207 89.4329 41.967 89.5261 41.8284Z" fill="white"/>
<path d="M146.112 43.4156C146.583 43.4383 147.054 43.4206 147.525 43.4206C147.777 43.4206 148.029 43.4206 148.284 43.4206C149.465 43.4206 149.465 43.4206 149.317 42.2465C149.097 40.5079 147.414 39.6513 145.903 40.5457C144.734 41.2361 144.509 42.3851 144.638 43.6197C144.842 45.5673 147.286 46.7163 148.966 45.6732C149.297 45.4666 149.143 45.1163 149.105 44.8518C149.062 44.562 148.805 44.6905 148.614 44.7459C148.105 44.8896 147.586 44.9173 147.064 44.8518C146.434 44.7737 146.003 44.3831 145.837 43.8086C145.756 43.534 145.777 43.4005 146.112 43.4156ZM146.112 41.7778C146.391 41.3873 146.787 41.2437 147.261 41.2991C147.656 41.3445 147.883 41.5863 148.034 41.9341C148.168 42.2389 148.148 42.4153 147.749 42.3851C147.498 42.3674 147.246 42.3825 146.991 42.3825C146.79 42.3825 146.585 42.3926 146.386 42.38C146.225 42.3699 146.003 42.4657 145.918 42.3095C145.812 42.1129 146.001 41.9341 146.112 41.7778Z" fill="white"/>
<path d="M170.834 43.4184C171.338 43.431 171.845 43.4234 172.348 43.4209C172.618 43.4209 172.888 43.4209 173.157 43.4209C174.208 43.4209 174.208 43.4209 174.112 42.3576C174.009 41.2162 173.402 40.4755 172.401 40.2664C171.333 40.0446 170.28 40.5385 169.763 41.501C169.458 42.0654 169.383 42.6751 169.395 43.305C169.436 45.4568 171.865 46.7846 173.742 45.6785C174.09 45.4744 173.923 45.1267 173.893 44.8621C173.863 44.5724 173.608 44.6832 173.412 44.7412C172.905 44.8873 172.384 44.915 171.862 44.8521C171.202 44.7714 170.711 44.3179 170.597 43.7233C170.555 43.5091 170.59 43.4108 170.834 43.4184ZM170.771 41.9721C171.031 41.501 171.421 41.2616 171.966 41.2918C172.432 41.317 172.689 41.5917 172.847 42.0024C172.958 42.2896 172.878 42.4055 172.565 42.3879C172.296 42.3727 172.026 42.3854 171.756 42.3854C171.504 42.3854 171.25 42.3727 170.998 42.3879C170.605 42.4156 170.623 42.2367 170.771 41.9721Z" fill="white"/>
<path d="M133.34 40.3165C131.662 39.8529 130.215 40.8179 129.979 42.5589C129.79 43.9372 130.256 45.1012 131.228 45.6278C132.722 46.4341 135.177 45.8294 135.156 43.083C135.156 41.6494 134.489 40.6314 133.34 40.3165ZM133.859 43.7936C133.665 44.5242 133.151 44.945 132.511 44.9173C131.868 44.8896 131.364 44.4235 131.216 43.7154C131.115 43.2342 131.115 42.7529 131.271 42.2793C131.483 41.6292 131.949 41.2538 132.544 41.2487C133.153 41.2437 133.637 41.6418 133.846 42.3095C133.927 42.569 133.95 42.8336 133.952 43.2468C133.939 43.335 133.919 43.5693 133.859 43.7936Z" fill="white"/>
<path d="M99.2846 40.5459C97.6166 39.6061 95.6513 40.5812 95.3943 42.4734C95.228 43.7055 95.3994 44.8519 96.5634 45.5751C97.4302 46.1117 98.375 46.1067 99.2594 45.6255C100.252 45.0837 100.557 44.1389 100.567 42.995C100.542 42.0199 100.26 41.0952 99.2846 40.5459ZM99.2619 43.7962C99.0679 44.5269 98.5539 44.9477 97.9114 44.9174C97.2664 44.8872 96.765 44.4211 96.6189 43.7131C96.5181 43.2293 96.5206 42.7506 96.6743 42.2769C96.8885 41.6268 97.3521 41.2514 97.9492 41.2489C98.559 41.2438 99.0427 41.6445 99.2519 42.3122C99.3325 42.5717 99.3527 42.8362 99.3577 43.2495C99.3401 43.3376 99.3199 43.572 99.2619 43.7962Z" fill="white"/>
</svg>
