<svg width="24" height="24" viewBox="0 0 24 24" fill="none" xmlns="http://www.w3.org/2000/svg">
<g clip-path="url(#clip0)">
<path d="M11.9999 10.4438C9.48074 10.4438 7.43123 12.4934 7.43123 15.0126C7.43123 17.5318 9.48074 19.5814 11.9999 19.5814C14.5191 19.5814 16.5687 17.5318 16.5687 15.0126C16.5687 12.4934 14.5191 10.4438 11.9999 10.4438ZM14.0947 16.113C14.3693 16.3875 14.3693 16.8328 14.0947 17.1074C13.9574 17.2446 13.7775 17.3133 13.5976 17.3133C13.4176 17.3133 13.2377 17.2446 13.1004 17.1074L11.9999 16.0069L10.8995 17.1074C10.7622 17.2446 10.5822 17.3133 10.4023 17.3133C10.2223 17.3133 10.0424 17.2446 9.90515 17.1074C9.63056 16.8328 9.63056 16.3876 9.90515 16.113L11.0056 15.0126L9.90515 13.9121C9.63056 13.6376 9.63056 13.1924 9.90515 12.9178C10.1797 12.6432 10.6249 12.6432 10.8995 12.9178L11.9999 14.0182L13.1004 12.9178C13.3749 12.6432 13.8201 12.6432 14.0947 12.9178C14.3693 13.1923 14.3693 13.6375 14.0947 13.9121L12.9943 15.0126L14.0947 16.113Z" fill="white"/>
<path d="M16.8953 7.43123C15.4694 7.43123 14.3093 6.27122 14.3093 4.84533V0H4.84528C3.41939 0 2.25932 1.16006 2.25932 2.58595V21.414C2.25932 22.8399 3.41939 24 4.84528 24H19.1547C20.5806 24 21.7407 22.8399 21.7407 21.414V7.43123H16.8953ZM11.9999 20.9875C8.70534 20.9875 6.02498 18.3071 6.02498 15.0125C6.02498 11.7179 8.70534 9.0375 11.9999 9.0375C15.2946 9.0375 17.975 11.7179 17.975 15.0125C17.975 18.3071 15.2946 20.9875 11.9999 20.9875Z" fill="white"/>
<path d="M16.8953 6.02471H21.3288L15.7156 0.411621V4.84506C15.7156 5.49554 16.2448 6.02471 16.8953 6.02471Z" fill="white"/>
</g>
<defs>
<clipPath id="clip0">
<rect width="24" height="24" fill="white"/>
</clipPath>
</defs>
</svg>
