<svg width="24" height="24" viewBox="0 0 24 24" fill="none" xmlns="http://www.w3.org/2000/svg">
<g clip-path="url(#clip0)">
<path d="M16.2357 11.3438C12.7464 11.3438 9.90759 14.1825 9.90759 17.6719C9.90759 21.1612 12.7464 24 16.2357 24C19.725 24 22.5638 21.1612 22.5638 17.6719C22.5638 14.1825 19.725 11.3438 16.2357 11.3438ZM17.1732 17.8594C17.1732 18.2477 16.8584 18.5625 16.4701 18.5625H14.3437C13.9554 18.5625 13.6406 18.2477 13.6406 17.8594C13.6406 17.4711 13.9554 17.1562 14.3437 17.1562H15.767V15.7201C15.767 15.3318 16.0818 15.017 16.4701 15.017C16.8584 15.017 17.1732 15.3318 17.1732 15.7201V17.8594Z" fill="white"/>
<path d="M8.61937 19.0223C8.48765 19.0464 8.66451 19.0302 4.96406 19.035C4.57546 19.035 4.26093 18.72 4.26093 18.3319C4.26093 17.9437 4.57546 17.6287 4.96406 17.6287C8.72132 17.6287 8.49191 17.6284 8.50124 17.6292C8.50405 17.1502 8.54999 16.6814 8.63671 16.2272H4.9664C4.57781 16.2272 4.26328 15.9122 4.26328 15.5241C4.26328 15.1359 4.57781 14.8209 4.9664 14.8209H9.0464C10.1939 11.9358 13.0111 9.92784 16.2608 9.93778V2.78841C16.2608 1.71886 16.6634 0.741703 17.3247 0H4.92327C2.98546 0 1.40859 1.57688 1.40859 3.51469V23.2842C1.40859 23.9167 2.18236 24.2275 2.61984 23.7703L3.51937 22.8309L4.46953 23.7816C4.74374 24.0558 5.18906 24.0558 5.46374 23.7816L6.36421 22.8816L7.27358 23.7834C7.5478 24.0553 7.98983 24.0553 8.26405 23.7834L9.18796 22.8675L10.1123 23.7834C10.3861 24.0553 10.8276 24.0553 11.1019 23.7839L11.2809 23.6067C9.91124 22.4611 8.9428 20.8519 8.61937 19.0223ZM7.23046 8.48063C7.44327 8.15578 7.87874 8.06484 8.20405 8.27719C8.55468 8.50688 9.13827 8.59125 9.42843 8.45438C9.63233 8.35875 9.78374 8.15953 9.80624 7.95891C9.85358 7.53886 9.28776 7.3297 8.90015 7.17703C8.41358 6.98484 7.80796 6.74531 7.46249 6.12234C6.97035 5.23266 7.40863 4.03912 8.43093 3.65438V3.54938C8.43093 3.16125 8.74593 2.84625 9.13405 2.84625C9.52265 2.84625 9.83718 3.16125 9.83718 3.54938V3.6075C10.1367 3.69141 10.4137 3.83484 10.6322 4.03641C10.9176 4.29984 10.9359 4.74469 10.6725 5.03016C10.4091 5.31562 9.96421 5.33344 9.67874 5.07C9.51843 4.92188 9.0614 4.86562 8.84765 5.00906C8.69718 5.11031 8.62358 5.31563 8.69296 5.44078C8.88988 5.79717 9.7633 5.87311 10.4395 6.40031C11.7576 7.42758 11.2833 9.30042 9.83718 9.80344V9.94687C9.83718 10.335 9.52265 10.65 9.13405 10.65C8.74593 10.65 8.43093 10.335 8.43093 9.94687V9.85734C8.0564 9.77719 7.70718 9.63281 7.4339 9.45422C7.10905 9.24141 7.01812 8.80594 7.23046 8.48063ZM4.96874 12.0037H8.48437C8.87249 12.0037 9.18749 12.3187 9.18749 12.7069C9.18749 13.095 8.87249 13.41 8.48437 13.41H4.96874C4.58015 13.41 4.26562 13.095 4.26562 12.7069C4.26562 12.3187 4.58015 12.0037 4.96874 12.0037Z" fill="white"/>
<path d="M20.1059 0C18.7331 0 17.6203 1.11281 17.6203 2.48555V9.90188H21.8883C22.2766 9.90188 22.5914 9.58706 22.5914 9.19875V2.48555C22.5914 1.11281 21.4786 0 20.1059 0V0Z" fill="white"/>
</g>
<defs>
<clipPath id="clip0">
<rect width="24" height="24" fill="white"/>
</clipPath>
</defs>
</svg>
