<svg width="142" height="142" viewBox="0 0 142 142" fill="none" xmlns="http://www.w3.org/2000/svg">
<g clip-path="url(#clip0)">
<path d="M70.5951 133.272L98.5627 126.209C114.526 112.954 124.694 92.9597 124.694 70.5884C124.694 36.0818 100.509 7.2242 68.1653 0.0410156C30.3025 1.31795 0 32.4143 0 70.5882C0 90.1962 7.99632 107.935 20.904 120.727L70.5951 133.272Z" fill="#CBE2FF"/>
<path d="M123.23 70.5882C123.23 93.7266 112.096 114.262 94.894 127.136L120.27 120.727C133.179 107.936 141.176 90.1969 141.176 70.5882C141.176 31.6034 109.573 0 70.5882 0C67.5485 0 64.5535 0.192463 61.615 0.565257C96.3629 4.97371 123.23 34.6434 123.23 70.5882Z" fill="#CBE2FF"/>
<path d="M88.1308 26.7333C88.1308 23.1281 85.2083 20.2056 81.603 20.2056H59.108C50.8109 20.2056 44.0846 26.9319 44.0846 35.229V51.9091H97.0834V35.4656C97.0834 31.8603 94.1609 28.9378 90.5556 28.9378H90.3356C89.1179 28.9378 88.1308 27.951 88.1308 26.7333Z" fill="#365E7D"/>
<path d="M90.5556 28.9376H90.3356C89.1179 28.9376 88.1308 27.9505 88.1308 26.7328C88.1308 23.1276 85.2083 20.2051 81.603 20.2051H79.1366V51.9086H97.0831V35.4651C97.0834 31.8604 94.1606 28.9376 90.5556 28.9376Z" fill="#2B4D66"/>
<path d="M117.2 102.671C115.474 100.967 113.339 99.6484 110.916 98.8813L91.6445 92.7798L70.5927 92.04L49.532 92.7798L30.2606 98.8813C23.7411 100.945 19.3103 106.996 19.3103 113.834V119.099C31.6602 132.149 48.9383 140.487 68.1659 141.136C89.7086 136.351 107.632 121.951 117.2 102.671Z" fill="#4A80AA"/>
<path d="M121.866 119.099V113.834C121.866 108.999 119.649 104.56 116.047 101.643C105.814 122.496 85.5995 137.563 61.6315 140.609C64.5245 140.976 67.4711 141.171 70.4622 141.176C73.3362 141.172 76.1722 141.005 78.9615 140.685C95.7899 138.696 110.805 130.788 121.866 119.099Z" fill="#407093"/>
<path d="M72.1864 140.12C76.4573 131.641 87.5785 107.565 84.4073 92.5255L70.5927 87.1489L56.7651 92.5258C53.496 108.029 65.4149 133.135 69.3609 140.859C70.31 140.632 71.2522 140.385 72.1864 140.12Z" fill="#E4F6FF"/>
<path d="M79.4661 133.398L73.8648 111.362H67.3114L61.7239 133.338L68.6333 141.03C70.3872 140.628 72.1169 140.162 73.8199 139.635L79.4661 133.398Z" fill="#E28086"/>
<path d="M68.7414 141.15C69.3135 141.165 69.8868 141.175 70.4622 141.176C71.1281 141.175 71.7918 141.164 72.4536 141.145L76.0125 137.213C73.2113 138.196 70.3296 139.007 67.3795 139.634L68.7414 141.15Z" fill="#DD636E"/>
<path d="M82.3825 90.4922V78.0659H58.7851V90.4922C58.7851 97.0084 70.5838 104.126 70.5838 104.126C70.5838 104.126 82.3825 97.0084 82.3825 90.4922Z" fill="#FFDDCE"/>
<path d="M97.0834 49.7204H92.5726C90.064 49.7204 88.0304 47.6869 88.0304 45.1782V42.6925C88.0304 39.4247 84.8333 37.1143 81.7307 38.1398C74.4946 40.5315 66.6813 40.5321 59.445 38.1415L59.4364 38.1387C56.3338 37.1138 53.1372 39.4242 53.1372 42.6916V45.1785C53.1372 47.6871 51.1037 49.7207 48.595 49.7207H44.0846V57.1484C44.0846 59.0463 45.6232 60.5852 47.5213 60.5852C48.1202 60.5852 48.6074 61.0542 48.6452 61.652C49.3699 73.1414 58.9122 82.2368 70.5841 82.2368C82.256 82.2368 91.7984 73.1414 92.523 61.652C92.5608 61.0545 93.048 60.5852 93.6469 60.5852C95.5448 60.5852 97.0836 59.0466 97.0836 57.1484V49.7204H97.0834Z" fill="#FFDDCE"/>
<path d="M92.5726 49.7205C90.064 49.7205 88.0304 47.687 88.0304 45.1783V42.6926C88.0304 39.4248 84.8333 37.1144 81.7307 38.1399C80.8737 38.4231 80.0082 38.6701 79.1369 38.8863V63.419C79.0161 71.401 74.6424 78.3479 68.1833 82.1023C68.9721 82.1881 69.7723 82.2363 70.5838 82.2363C82.2557 82.2363 91.7981 73.1409 92.5227 61.6516C92.5605 61.0541 93.0477 60.5848 93.6466 60.5848C95.5445 60.5848 97.0834 59.0462 97.0834 57.148V49.7202H92.5726V49.7205Z" fill="#FFCBBE"/>
<path d="M58.7851 87.1489L49.532 94.6674L59.2357 106.665C60.4161 107.815 62.274 107.885 63.5385 106.829L70.8359 100.734L58.7851 87.1489Z" fill="#F4FBFF"/>
<path d="M82.387 87.1489L70.8358 100.734L77.6945 106.598C78.951 107.672 80.8177 107.618 82.01 106.473L91.6442 94.6674L82.387 87.1489Z" fill="#F4FBFF"/>
<path d="M58.7851 87.1489L45.2035 93.8214C44.1695 94.3293 43.7543 95.5873 44.2823 96.6111L46.9431 101.77C47.6327 103.107 47.3782 104.736 46.3139 105.799C45.766 106.345 45.1726 106.938 44.6584 107.451C43.738 108.37 43.4074 109.727 43.8127 110.963C47.0253 120.756 62.4869 135.732 68.3383 141.15C68.7317 141.16 69.126 141.168 69.5212 141.172C65.2779 132.918 50.2412 101.561 58.7851 87.1489Z" fill="#365E7D"/>
<path d="M94.8582 105.798C93.7936 104.736 93.5394 103.107 94.229 101.77L96.8898 96.6108C97.4179 95.587 97.0026 94.3291 95.9686 93.8212L82.387 87.1489C90.9287 101.557 75.9025 132.901 71.6545 141.165C72.0538 141.159 72.4522 141.149 72.8499 141.135C78.7134 135.705 94.1499 120.748 97.3594 110.963C97.7647 109.728 97.4341 108.37 96.5137 107.451C95.9995 106.938 95.4061 106.345 94.8582 105.798Z" fill="#365E7D"/>
<path d="M70.8358 100.734L63.6502 106.735L67.3114 111.362H73.8648L77.5263 106.462L70.8358 100.734Z" fill="#DD636E"/>
</g>
<defs>
<clipPath id="clip0">
<rect width="141.176" height="141.176" fill="white"/>
</clipPath>
</defs>
</svg>
